<?xml version="1.0" encoding="iso-8859-1"?>
<!-- Generator: Adobe Illustrator 19.0.0, SVG Export Plug-In . SVG Version: 6.00 Build 0)  -->
<svg version="1.1" id="Layer_1" xmlns="http://www.w3.org/2000/svg" xmlns:xlink="http://www.w3.org/1999/xlink" x="0px" y="0px"
	 viewBox="0 0 512.001 512.001" style="enable-background:new 0 0 512.001 512.001;" xml:space="preserve">
<path style="fill:#E23A2D;" d="M489.679,160.174H187.816c-5.365,0-10.035,2.951-12.493,7.314l-0.003-0.006l-94.63,103.798H21.353
	c-7.918,0-14.337,6.418-14.337,14.337v110.71c0,7.918,6.418,14.337,14.337,14.337h71.675h97.973h172.225H461.2h23.376h5.104
	c7.918,0,14.336-6.418,14.336-14.337v-64.115v-46.595V174.509C504.015,166.591,497.597,160.174,489.679,160.174z"/>
<path style="fill:#EF443C;" d="M489.679,160.174H386.221c-51.962,34.127-86.28,92.914-86.28,159.727
	c0,32.852,8.3,63.766,22.91,90.763h40.374h97.973h23.376h5.104c7.918,0,14.336-6.418,14.336-14.337v-64.115v-46.595V174.509
	C504.015,166.591,497.597,160.174,489.679,160.174z"/>
<g>
	<path style="fill:#C12A23;" d="M207.18,167.484l0.003,0.006c2.458-4.363,7.127-7.314,12.493-7.314h-31.859
		c-5.365,0-10.035,2.951-12.493,7.314l-0.003-0.006l-94.63,103.797h31.859L207.18,167.484z"/>
	<path style="fill:#C12A23;" d="M38.875,396.327v-110.71c0-7.918,6.418-14.337,14.337-14.337H21.353
		c-7.918,0-14.337,6.418-14.337,14.337v110.71c0,7.918,6.418,14.337,14.337,14.337h31.859
		C45.294,410.664,38.875,404.246,38.875,396.327z"/>
</g>
<g>
	<path style="fill:#F7AC16;" d="M38.875,372.037c0-7.918-6.419-14.337-14.336-14.337H7.016v38.627
		c0,7.918,6.418,14.337,14.337,14.337h17.523L38.875,372.037L38.875,372.037z"/>
	<path style="fill:#F7AC16;" d="M253.127,120.864H225.25c-7.918,0-14.336,6.418-14.336,14.337v24.975h56.55v-24.975
		C267.464,127.281,261.046,120.864,253.127,120.864z"/>
</g>
<path style="fill:#F48B19;" d="M253.326,120.873c-0.067,0-0.132-0.01-0.199-0.01H225.25c-7.918,0-14.336,6.418-14.336,14.337v24.975
	h28.275V135.2C239.189,127.348,245.5,120.981,253.326,120.873z"/>
<path style="fill:#6EDCF9;" d="M210.914,256.946v-49.78c0-7.918-6.418-14.337-14.337-14.337h-44.364L80.69,271.281h115.887
	C204.495,271.281,210.914,264.863,210.914,256.946z"/>
<polygon style="fill:#33BBDB;" points="152.213,192.828 80.691,271.281 112.55,271.281 184.072,192.828 "/>
<path style="fill:#6EDCF9;" d="M7.016,328.649h43.01c7.917,0,14.337-6.418,14.337-14.337v-0.598c0-7.916-6.419-14.335-14.337-14.335
	H7.016V328.649z"/>
<rect x="7.02" y="299.379" style="fill:#33BBDB;" width="31.859" height="29.272"/>
<path style="fill:#F5F5F5;" d="M382.553,248.182h-30.664V217.52c0-9.897-8.023-17.921-17.921-17.921
	c-9.898,0-17.921,8.023-17.921,17.921v30.662h-30.663c-9.897,0-17.92,8.024-17.92,17.921c0,9.898,8.022,17.921,17.92,17.921h30.663
	v30.666c0,9.897,8.023,17.919,17.921,17.919c9.897,0,17.921-8.022,17.921-17.919v-30.666h30.664c9.897,0,17.921-8.023,17.921-17.921
	C400.474,256.206,392.451,248.182,382.553,248.182z"/>
<g>
	<circle style="fill:#454B60;" cx="142.019" cy="410.665" r="48.986"/>
	<circle style="fill:#454B60;" cx="412.215" cy="410.665" r="48.986"/>
</g>
<g>
	<path style="fill:#303749;" d="M119.029,410.664c0-22.553,15.245-41.532,35.985-47.23c-4.142-1.139-8.499-1.758-13.002-1.758
		c-27.053,0-48.985,21.931-48.985,48.987c0,27.055,21.933,48.985,48.985,48.985c4.503,0,8.86-0.619,13.002-1.758
		C134.275,452.195,119.029,433.216,119.029,410.664z"/>
	<path style="fill:#303749;" d="M389.228,410.664c0-22.553,15.245-41.532,35.985-47.23c-4.142-1.139-8.499-1.758-13.002-1.758
		c-27.053,0-48.985,21.931-48.985,48.987c0,27.055,21.933,48.985,48.985,48.985c4.503,0,8.86-0.619,13.002-1.758
		C404.473,452.195,389.228,433.216,389.228,410.664z"/>
</g>
<g>
	<circle style="fill:#8089A0;" cx="142.019" cy="410.665" r="15.929"/>
	<circle style="fill:#8089A0;" cx="412.215" cy="410.665" r="15.929"/>
</g>
<g>
	<path style="fill:#60677C;" d="M142.015,410.664c0-5.893,3.208-11.026,7.964-13.782c-2.345-1.358-5.059-2.148-7.964-2.148
		c-8.797,0-15.929,7.133-15.929,15.931c0,8.796,7.132,15.929,15.929,15.929c2.905,0,5.619-0.79,7.964-2.148
		C145.223,421.688,142.015,416.555,142.015,410.664z"/>
	<path style="fill:#60677C;" d="M412.213,410.664c0-5.893,3.208-11.026,7.964-13.782c-2.345-1.358-5.06-2.148-7.964-2.148
		c-8.797,0-15.929,7.133-15.929,15.931c0,8.796,7.132,15.929,15.929,15.929c2.904,0,5.619-0.79,7.964-2.148
		C415.42,421.688,412.213,416.555,412.213,410.664z"/>
</g>
<g>
	<path style="fill:#231F20;" d="M504.5,197.502c4.143,0,7.5-3.357,7.5-7.5v-15.493c0-12.04-9.796-21.835-21.836-21.835H275.45V135.2
		c0-12.041-9.797-21.837-21.837-21.837h-27.878c-12.041,0-21.836,9.797-21.836,21.837v17.474H188.3
		c-7.543,0-14.556,3.921-18.531,10.297L77.864,263.78H21.837C9.797,263.78,0,273.577,0,285.618v13.763v29.27v29.051v38.627
		c0,12.041,9.797,21.837,21.837,21.837h17.522h47.166c3.682,27.611,27.371,48.985,55.973,48.985s52.293-21.374,55.975-48.985h158.25
		c3.682,27.611,27.371,48.985,55.973,48.985c28.604,0,52.293-21.374,55.975-48.985h21.492c12.041,0,21.836-9.797,21.836-21.837
		V215.345c0-4.143-3.357-7.5-7.5-7.5s-7.5,3.357-7.5,7.5v180.983c0,3.77-3.066,6.836-6.835,6.836h-21.476
		c-0.025-0.193-0.063-0.383-0.091-0.576c-0.058-0.4-0.121-0.799-0.187-1.196c-0.082-0.499-0.171-0.996-0.267-1.49
		c-0.077-0.397-0.157-0.791-0.242-1.185c-0.106-0.491-0.22-0.978-0.339-1.465c-0.095-0.387-0.19-0.773-0.293-1.156
		c-0.13-0.488-0.271-0.973-0.414-1.456c-0.11-0.372-0.219-0.745-0.337-1.115c-0.157-0.491-0.326-0.977-0.496-1.463
		c-0.123-0.352-0.242-0.705-0.372-1.054c-0.189-0.511-0.395-1.015-0.6-1.518c-0.127-0.314-0.248-0.632-0.381-0.943
		c-0.253-0.591-0.522-1.173-0.794-1.754c-0.101-0.215-0.193-0.434-0.297-0.647c-0.381-0.787-0.779-1.564-1.195-2.331
		c-0.113-0.209-0.237-0.412-0.354-0.619c-0.31-0.557-0.624-1.111-0.953-1.656c-0.173-0.287-0.357-0.566-0.535-0.85
		c-0.287-0.456-0.573-0.912-0.873-1.359c-0.202-0.303-0.414-0.598-0.622-0.897c-0.291-0.418-0.583-0.834-0.885-1.244
		c-0.224-0.303-0.454-0.599-0.683-0.896c-0.303-0.393-0.607-0.785-0.921-1.17c-0.24-0.297-0.486-0.589-0.733-0.881
		c-0.316-0.374-0.636-0.744-0.962-1.11c-0.256-0.287-0.515-0.571-0.775-0.853c-0.334-0.359-0.672-0.713-1.014-1.063
		c-0.268-0.273-0.535-0.545-0.808-0.813c-0.352-0.348-0.713-0.688-1.075-1.025c-0.274-0.257-0.548-0.514-0.828-0.764
		c-0.377-0.34-0.763-0.668-1.15-0.997c-0.276-0.235-0.55-0.473-0.831-0.702c-0.414-0.339-0.838-0.666-1.262-0.992
		c-0.266-0.205-0.527-0.415-0.796-0.615c-0.487-0.361-0.985-0.709-1.484-1.056c-0.218-0.151-0.43-0.31-0.649-0.458
		c-0.722-0.486-1.455-0.957-2.2-1.412c-0.126-0.076-0.257-0.147-0.384-0.223c-0.623-0.372-1.251-0.737-1.889-1.086
		c-0.272-0.149-0.552-0.287-0.827-0.432c-0.501-0.264-1.001-0.526-1.511-0.775c-0.318-0.155-0.643-0.3-0.966-0.449
		c-0.476-0.222-0.951-0.441-1.435-0.65c-0.344-0.148-0.691-0.287-1.039-0.428c-0.472-0.193-0.943-0.383-1.421-0.563
		c-0.36-0.135-0.724-0.264-1.087-0.392c-0.475-0.167-0.952-0.331-1.433-0.485c-0.371-0.12-0.744-0.234-1.118-0.347
		c-0.483-0.146-0.969-0.283-1.458-0.415c-0.378-0.102-0.757-0.202-1.138-0.297c-0.495-0.123-0.994-0.236-1.494-0.346
		c-0.381-0.083-0.761-0.166-1.145-0.242c-0.515-0.102-1.032-0.19-1.552-0.277c-0.376-0.064-0.75-0.131-1.129-0.186
		c-0.544-0.08-1.093-0.145-1.641-0.21c-0.36-0.042-0.718-0.091-1.08-0.126c-0.608-0.06-1.223-0.1-1.836-0.141
		c-0.308-0.02-0.612-0.049-0.92-0.064c-0.925-0.045-1.855-0.07-2.79-0.07c-0.936,0-1.865,0.025-2.79,0.07
		c-0.308,0.016-0.612,0.045-0.92,0.064c-0.614,0.041-1.228,0.081-1.836,0.141c-0.361,0.035-0.72,0.084-1.08,0.127
		c-0.548,0.064-1.097,0.129-1.64,0.209c-0.379,0.055-0.754,0.121-1.131,0.186c-0.518,0.087-1.036,0.176-1.55,0.277
		c-0.384,0.075-0.764,0.159-1.145,0.242c-0.501,0.109-0.999,0.223-1.494,0.346c-0.382,0.095-0.761,0.195-1.139,0.297
		c-0.488,0.133-0.974,0.27-1.457,0.415c-0.374,0.112-0.747,0.227-1.118,0.347c-0.481,0.154-0.958,0.318-1.433,0.485
		c-0.363,0.128-0.727,0.257-1.087,0.392c-0.478,0.18-0.949,0.369-1.421,0.561c-0.348,0.142-0.695,0.28-1.04,0.429
		c-0.481,0.208-0.956,0.428-1.432,0.648c-0.323,0.15-0.649,0.296-0.97,0.452c-0.507,0.247-1.006,0.51-1.504,0.772
		c-0.277,0.145-0.559,0.283-0.832,0.434c-0.635,0.348-1.26,0.711-1.88,1.082c-0.13,0.077-0.264,0.148-0.393,0.227
		c-0.744,0.454-1.478,0.925-2.199,1.411c-0.221,0.149-0.434,0.309-0.652,0.459c-0.497,0.347-0.994,0.693-1.48,1.055
		c-0.271,0.201-0.533,0.412-0.8,0.617c-0.423,0.326-0.845,0.652-1.258,0.989c-0.282,0.23-0.558,0.47-0.835,0.706
		c-0.386,0.327-0.77,0.655-1.146,0.992c-0.281,0.252-0.556,0.51-0.831,0.768c-0.361,0.337-0.72,0.676-1.071,1.022
		c-0.273,0.268-0.543,0.542-0.81,0.816c-0.341,0.349-0.678,0.701-1.01,1.059c-0.263,0.283-0.522,0.568-0.779,0.856
		c-0.324,0.364-0.643,0.733-0.958,1.106c-0.248,0.293-0.495,0.586-0.737,0.885c-0.312,0.383-0.615,0.773-0.916,1.164
		c-0.23,0.3-0.462,0.598-0.686,0.902c-0.302,0.408-0.592,0.824-0.883,1.24c-0.208,0.299-0.421,0.596-0.624,0.898
		c-0.299,0.446-0.584,0.901-0.87,1.356c-0.179,0.284-0.364,0.565-0.538,0.854c-0.327,0.54-0.638,1.092-0.946,1.645
		c-0.118,0.211-0.244,0.417-0.36,0.63c-0.415,0.767-0.813,1.543-1.194,2.33c-0.105,0.218-0.2,0.441-0.303,0.661
		c-0.27,0.576-0.537,1.153-0.788,1.74c-0.134,0.314-0.256,0.634-0.385,0.951c-0.203,0.501-0.406,1.001-0.596,1.509
		c-0.13,0.351-0.25,0.705-0.373,1.059c-0.17,0.484-0.338,0.969-0.495,1.459c-0.118,0.371-0.227,0.745-0.338,1.118
		c-0.143,0.482-0.283,0.966-0.413,1.452c-0.103,0.385-0.198,0.771-0.293,1.158c-0.119,0.486-0.232,0.975-0.339,1.467
		c-0.085,0.392-0.165,0.787-0.242,1.183c-0.096,0.493-0.184,0.989-0.267,1.487c-0.066,0.399-0.131,0.799-0.189,1.201
		c-0.027,0.191-0.064,0.381-0.09,0.574H198.49c-0.025-0.193-0.063-0.383-0.091-0.576c-0.058-0.4-0.121-0.799-0.188-1.196
		c-0.082-0.499-0.171-0.996-0.267-1.49c-0.077-0.397-0.157-0.791-0.242-1.185c-0.106-0.491-0.22-0.978-0.339-1.465
		c-0.095-0.387-0.19-0.773-0.293-1.156c-0.13-0.488-0.27-0.973-0.414-1.456c-0.11-0.372-0.219-0.745-0.337-1.115
		c-0.157-0.491-0.326-0.977-0.496-1.463c-0.123-0.352-0.242-0.705-0.372-1.054c-0.189-0.511-0.395-1.015-0.6-1.518
		c-0.127-0.314-0.248-0.632-0.381-0.943c-0.253-0.591-0.523-1.173-0.794-1.754c-0.101-0.215-0.193-0.434-0.297-0.647
		c-0.381-0.787-0.779-1.564-1.195-2.331c-0.113-0.209-0.237-0.412-0.354-0.619c-0.311-0.557-0.624-1.111-0.953-1.656
		c-0.173-0.287-0.357-0.566-0.535-0.85c-0.287-0.456-0.573-0.912-0.873-1.359c-0.202-0.303-0.414-0.598-0.622-0.897
		c-0.291-0.418-0.583-0.834-0.885-1.244c-0.224-0.303-0.454-0.599-0.683-0.896c-0.303-0.393-0.607-0.785-0.921-1.17
		c-0.24-0.297-0.486-0.589-0.733-0.881c-0.316-0.374-0.636-0.744-0.962-1.11c-0.256-0.287-0.515-0.571-0.775-0.853
		c-0.334-0.359-0.672-0.713-1.014-1.063c-0.268-0.273-0.535-0.545-0.808-0.813c-0.352-0.348-0.713-0.688-1.075-1.025
		c-0.274-0.257-0.548-0.514-0.828-0.764c-0.377-0.34-0.763-0.668-1.15-0.997c-0.276-0.235-0.55-0.473-0.831-0.702
		c-0.414-0.339-0.838-0.666-1.262-0.992c-0.266-0.205-0.527-0.415-0.796-0.615c-0.487-0.361-0.985-0.709-1.484-1.056
		c-0.218-0.151-0.43-0.31-0.649-0.458c-0.722-0.486-1.455-0.957-2.2-1.412c-0.126-0.076-0.257-0.147-0.384-0.223
		c-0.623-0.372-1.251-0.737-1.889-1.086c-0.273-0.149-0.552-0.287-0.827-0.432c-0.501-0.264-1.001-0.526-1.511-0.775
		c-0.318-0.155-0.644-0.3-0.966-0.449c-0.476-0.222-0.951-0.441-1.435-0.65c-0.344-0.148-0.691-0.287-1.039-0.428
		c-0.472-0.193-0.943-0.383-1.421-0.563c-0.36-0.135-0.724-0.264-1.087-0.392c-0.476-0.167-0.952-0.331-1.433-0.485
		c-0.371-0.12-0.744-0.234-1.118-0.347c-0.483-0.146-0.969-0.283-1.458-0.415c-0.378-0.102-0.757-0.202-1.138-0.297
		c-0.495-0.123-0.994-0.236-1.494-0.346c-0.381-0.083-0.761-0.166-1.145-0.242c-0.515-0.102-1.032-0.19-1.552-0.277
		c-0.376-0.064-0.75-0.131-1.129-0.186c-0.544-0.08-1.093-0.145-1.641-0.21c-0.36-0.042-0.718-0.091-1.08-0.126
		c-0.608-0.06-1.223-0.1-1.836-0.141c-0.308-0.02-0.612-0.049-0.92-0.064c-0.925-0.045-1.855-0.07-2.79-0.07
		c-0.936,0-1.865,0.025-2.79,0.07c-0.308,0.016-0.612,0.045-0.92,0.064c-0.614,0.041-1.227,0.081-1.836,0.141
		c-0.361,0.035-0.72,0.084-1.08,0.127c-0.548,0.064-1.097,0.129-1.64,0.209c-0.379,0.055-0.754,0.121-1.131,0.186
		c-0.519,0.087-1.036,0.176-1.55,0.277c-0.384,0.075-0.764,0.159-1.145,0.242c-0.501,0.109-0.999,0.223-1.494,0.346
		c-0.382,0.095-0.761,0.195-1.139,0.297c-0.488,0.133-0.974,0.27-1.457,0.415c-0.374,0.112-0.747,0.227-1.118,0.347
		c-0.481,0.154-0.958,0.318-1.433,0.485c-0.363,0.128-0.727,0.257-1.087,0.392c-0.478,0.18-0.949,0.369-1.421,0.561
		c-0.348,0.142-0.695,0.28-1.04,0.429c-0.481,0.208-0.956,0.428-1.432,0.648c-0.323,0.15-0.649,0.296-0.97,0.452
		c-0.507,0.247-1.006,0.51-1.504,0.772c-0.277,0.145-0.559,0.283-0.832,0.434c-0.635,0.348-1.26,0.711-1.88,1.082
		c-0.13,0.077-0.264,0.148-0.394,0.227c-0.744,0.454-1.478,0.925-2.199,1.411c-0.221,0.149-0.434,0.309-0.652,0.459
		c-0.497,0.347-0.994,0.693-1.48,1.055c-0.271,0.201-0.533,0.412-0.8,0.617c-0.423,0.326-0.845,0.652-1.258,0.989
		c-0.282,0.23-0.558,0.47-0.835,0.706c-0.386,0.327-0.769,0.655-1.146,0.992c-0.281,0.252-0.556,0.51-0.831,0.768
		c-0.361,0.337-0.72,0.676-1.071,1.022c-0.273,0.268-0.543,0.542-0.811,0.816c-0.341,0.349-0.678,0.701-1.01,1.059
		c-0.263,0.283-0.522,0.568-0.779,0.856c-0.324,0.364-0.644,0.733-0.958,1.106c-0.248,0.293-0.495,0.586-0.737,0.885
		c-0.312,0.383-0.615,0.773-0.916,1.164c-0.231,0.3-0.462,0.598-0.687,0.902c-0.302,0.408-0.592,0.824-0.883,1.24
		c-0.208,0.299-0.421,0.596-0.624,0.898c-0.299,0.446-0.584,0.901-0.87,1.356c-0.179,0.284-0.364,0.565-0.538,0.854
		c-0.327,0.54-0.638,1.092-0.946,1.645c-0.118,0.211-0.244,0.417-0.36,0.63c-0.415,0.767-0.813,1.543-1.194,2.33
		c-0.105,0.218-0.2,0.441-0.303,0.661c-0.27,0.576-0.537,1.153-0.788,1.74c-0.134,0.314-0.256,0.634-0.385,0.951
		c-0.203,0.501-0.406,1.001-0.596,1.509c-0.13,0.351-0.25,0.705-0.373,1.059c-0.17,0.484-0.338,0.969-0.495,1.459
		c-0.118,0.371-0.227,0.745-0.338,1.118c-0.143,0.482-0.283,0.966-0.413,1.452c-0.103,0.385-0.198,0.771-0.293,1.158
		c-0.119,0.486-0.232,0.975-0.339,1.467c-0.085,0.392-0.165,0.787-0.242,1.183c-0.096,0.493-0.184,0.989-0.267,1.487
		c-0.066,0.399-0.131,0.799-0.188,1.201c-0.027,0.191-0.064,0.381-0.09,0.574H46.86v-31.127c0-12.041-9.796-21.837-21.836-21.837
		H15.001v-14.05H50.51c12.041,0,21.837-9.797,21.837-21.837v-0.598c0-12.04-9.797-21.835-21.837-21.835H15.001v-6.256
		c0-3.77,3.066-6.836,6.836-6.836h59.338h33.254c4.143,0,7.5-3.357,7.5-7.5s-3.357-7.5-7.5-7.5H98.162l15.493-16.993l42.355-46.459
		h41.052c3.77,0,6.836,3.066,6.836,6.836v49.78c0,3.768-3.066,6.834-6.836,6.834H140.43c-4.143,0-7.5,3.357-7.5,7.5
		s3.357,7.5,7.5,7.5h56.631c12.041,0,21.837-9.796,21.837-21.835v-49.78c0-12.041-9.797-21.837-21.837-21.837h-27.376l11.453-12.562
		c0.464-0.47,0.87-1.004,1.203-1.596c1.215-2.155,3.498-3.495,5.958-3.495h23.098h56.55h222.214c3.769,0,6.835,3.065,6.835,6.834
		v15.493C496.999,194.145,500.356,197.502,504.5,197.502z M142.498,452.149c-22.874,0-41.485-18.61-41.485-41.484
		c0.001-20.73,15.285-37.959,35.176-41.009c2.058-0.314,4.164-0.479,6.309-0.479c22.875,0,41.486,18.611,41.486,41.487
		C183.985,433.539,165.374,452.149,142.498,452.149z M412.696,452.149c-22.874,0-41.484-18.61-41.484-41.484
		c0.001-20.73,15.285-37.959,35.176-41.009c2.058-0.314,4.164-0.479,6.309-0.479c22.875,0,41.486,18.611,41.487,41.487
		C454.182,433.539,435.572,452.149,412.696,452.149z M25.024,365.201c3.768,0,6.835,3.066,6.835,6.836v31.127H21.837
		c-3.77,0-6.836-3.066-6.836-6.836v-31.127H25.024z M50.51,306.88c3.769,0,6.836,3.066,6.836,6.834v0.598
		c0,3.77-3.066,6.836-6.836,6.836H15.001V306.88H50.51z M218.899,152.674V135.2c0-3.77,3.066-6.836,6.835-6.836h27.878
		c3.769,0,6.836,3.066,6.836,6.836v17.474H218.899z"/>
	<path style="fill:#231F20;" d="M334.453,340.109c14.018,0,25.422-11.403,25.422-25.42v-23.165h23.163
		c14.018,0,25.422-11.404,25.422-25.422s-11.404-25.422-25.422-25.422h-23.163V217.52c0-14.018-11.404-25.422-25.422-25.422
		c-14.018,0-25.422,11.404-25.422,25.422v23.161h-23.162c-14.017,0-25.421,11.404-25.421,25.422s11.404,25.422,25.421,25.422h23.162
		v23.165C309.032,328.706,320.435,340.109,334.453,340.109z M285.869,276.523c-5.745,0-10.42-4.675-10.42-10.421
		s4.674-10.421,10.42-10.421h30.663c4.143,0,7.5-3.357,7.5-7.5V217.52c0-5.745,4.675-10.421,10.421-10.421
		c5.745,0,10.421,4.675,10.421,10.421v30.662c0,4.143,3.357,7.5,7.5,7.5h30.664c5.745,0,10.421,4.675,10.421,10.421
		c0,5.745-4.675,10.421-10.421,10.421h-30.664c-4.143,0-7.5,3.357-7.5,7.5v30.666c0,5.744-4.675,10.419-10.421,10.419
		s-10.421-4.674-10.421-10.419v-30.666c0-4.143-3.357-7.5-7.5-7.5H285.869z"/>
	<path style="fill:#231F20;" d="M142.499,387.233c-12.919,0-23.429,10.512-23.429,23.431c0,12.919,10.511,23.429,23.429,23.429
		c12.92,0,23.43-10.511,23.43-23.429C165.929,397.745,155.418,387.233,142.499,387.233z M142.499,419.092
		c-4.647,0-8.429-3.78-8.429-8.428c0-4.648,3.78-8.431,8.429-8.431c4.647,0,8.43,3.781,8.43,8.431
		C150.928,415.312,147.147,419.092,142.499,419.092z"/>
	<path style="fill:#231F20;" d="M412.697,387.233c-12.919,0-23.429,10.512-23.429,23.431c0,12.919,10.511,23.429,23.429,23.429
		c12.92,0,23.43-10.511,23.43-23.429C436.127,397.745,425.617,387.233,412.697,387.233z M412.697,419.092
		c-4.648,0-8.429-3.78-8.429-8.428c0-4.648,3.78-8.431,8.429-8.431c4.647,0,8.43,3.781,8.43,8.431
		C421.127,415.312,417.344,419.092,412.697,419.092z"/>
	<path style="fill:#231F20;" d="M239.674,97.783c4.143,0,7.5-3.357,7.5-7.5V52.351c0-4.143-3.357-7.5-7.5-7.5
		c-4.143,0-7.5,3.357-7.5,7.5v37.932C232.173,94.426,235.531,97.783,239.674,97.783z"/>
	<path style="fill:#231F20;" d="M264.907,102.748c1.398,1.155,3.091,1.718,4.773,1.718c2.159,0,4.303-0.928,5.786-2.723
		l24.16-29.242c2.638-3.193,2.189-7.921-1.005-10.561c-3.193-2.639-7.921-2.189-10.561,1.005l-24.16,29.242
		C261.264,95.381,261.713,100.11,264.907,102.748z"/>
	<path style="fill:#231F20;" d="M203.879,101.743c1.483,1.795,3.627,2.723,5.786,2.723c1.683,0,3.375-0.563,4.773-1.718
		c3.193-2.639,3.643-7.366,1.005-10.561l-24.16-29.242c-2.64-3.194-7.367-3.644-10.561-1.005c-3.193,2.639-3.643,7.366-1.005,10.561
		L203.879,101.743z"/>
</g>
<g>
</g>
<g>
</g>
<g>
</g>
<g>
</g>
<g>
</g>
<g>
</g>
<g>
</g>
<g>
</g>
<g>
</g>
<g>
</g>
<g>
</g>
<g>
</g>
<g>
</g>
<g>
</g>
<g>
</g>
</svg>
