<svg height="464pt" viewBox="0 0 464 464" width="464pt" xmlns="http://www.w3.org/2000/svg"><path d="m120 0h80c8.835938 0 16 7.164062 16 16v80c0 8.835938-7.164062 16-16 16h-80c-8.835938 0-16-7.164062-16-16v-80c0-8.835938 7.164062-16 16-16zm0 0" fill="#c5dddc"/><path d="m120 24v-24c-8.835938 0-16 7.164062-16 16v80c0 8.835938 7.164062 16 16 16h80c8.835938 0 16-7.164062 16-16h-24c-39.765625 0-72-32.234375-72-72zm0 0" fill="#88d3d1"/><path d="m184 48h-16v-16c0-4.417969-3.582031-8-8-8s-8 3.582031-8 8v16h-16c-4.417969 0-8 3.582031-8 8s3.582031 8 8 8h16v16c0 4.417969 3.582031 8 8 8s8-3.582031 8-8v-16h16c4.417969 0 8-3.582031 8-8s-3.582031-8-8-8zm0 0" fill="#ee1442"/><path d="m8 432h448c4.417969 0 8 3.582031 8 8v16c0 4.417969-3.582031 8-8 8h-448c-4.417969 0-8-3.582031-8-8v-16c0-4.417969 3.582031-8 8-8zm0 0" fill="#ee1442"/><path d="m0 449v7c0 4.417969 3.582031 8 8 8h448c4.417969 0 8-3.582031 8-8v-7zm0 0" fill="#ce1743"/><path d="m296 160h112c17.671875 0 32 14.328125 32 32v240h-144zm0 0" fill="#88d3d1"/><path d="m400 400c-35.347656 0-64-28.652344-64-64v-176h-40v272h144v-32zm0 0" fill="#33b1a2"/><path d="m376 208h16c4.417969 0 8 3.582031 8 8v16c0 4.417969-3.582031 8-8 8h-16c-4.417969 0-8-3.582031-8-8v-16c0-4.417969 3.582031-8 8-8zm0 0" fill="#c5dddc"/><path d="m296 208h24c4.417969 0 8 3.582031 8 8v16c0 4.417969-3.582031 8-8 8h-24zm0 0" fill="#88d3d1"/><path d="m376 280h16c4.417969 0 8 3.582031 8 8v16c0 4.417969-3.582031 8-8 8h-16c-4.417969 0-8-3.582031-8-8v-16c0-4.417969 3.582031-8 8-8zm0 0" fill="#c5dddc"/><path d="m296 280h24c4.417969 0 8 3.582031 8 8v16c0 4.417969-3.582031 8-8 8h-24zm0 0" fill="#88d3d1"/><path d="m376 352h16c4.417969 0 8 3.582031 8 8v16c0 4.417969-3.582031 8-8 8h-16c-4.417969 0-8-3.582031-8-8v-16c0-4.417969 3.582031-8 8-8zm0 0" fill="#c5dddc"/><path d="m296 352h24c4.417969 0 8 3.582031 8 8v16c0 4.417969-3.582031 8-8 8h-24zm0 0" fill="#88d3d1"/><path d="m264 64h-48v32c0 8.835938-7.164062 16-16 16h-80c-8.835938 0-16-7.164062-16-16v-32h-48c-17.671875 0-32 14.328125-32 32v336h272v-336c0-17.671875-14.328125-32-32-32zm0 0" fill="#33b1a2"/><path d="m232 392c-92.785156 0-168-75.214844-168-168v-160h-8c-17.671875 0-32 14.328125-32 32v336h272v-40zm0 0" fill="#2e9989"/><path d="m80 312h160c4.417969 0 8 3.582031 8 8v16c0 4.417969-3.582031 8-8 8h-160c-4.417969 0-8-3.582031-8-8v-16c0-4.417969 3.582031-8 8-8zm0 0" fill="#ee1442"/><path d="m104 248h112c4.417969 0 8 3.582031 8 8v56h-128v-56c0-4.417969 3.582031-8 8-8zm0 0" fill="#c5dddc"/><path d="m160 296c-26.507812 0-48-21.492188-48-48h-8c-4.417969 0-8 3.582031-8 8v56h128v-16zm0 0" fill="#88d3d1"/><g fill="#c5dddc"><path d="m64 152h32c4.417969 0 8 3.582031 8 8v32c0 4.417969-3.582031 8-8 8h-32c-4.417969 0-8-3.582031-8-8v-32c0-4.417969 3.582031-8 8-8zm0 0"/><path d="m144 152h32c4.417969 0 8 3.582031 8 8v32c0 4.417969-3.582031 8-8 8h-32c-4.417969 0-8-3.582031-8-8v-32c0-4.417969 3.582031-8 8-8zm0 0"/><path d="m224 152h32c4.417969 0 8 3.582031 8 8v32c0 4.417969-3.582031 8-8 8h-32c-4.417969 0-8-3.582031-8-8v-32c0-4.417969 3.582031-8 8-8zm0 0"/></g><path d="m56 160v32c0 4.417969 3.582031 8 8 8h32c4.417969 0 8-3.582031 8-8l-40-40c-4.417969 0-8 3.582031-8 8zm0 0" fill="#88d3d1"/><path d="m136 160v32c0 4.417969 3.582031 8 8 8h32c4.417969 0 8-3.582031 8-8l-40-40c-4.417969 0-8 3.582031-8 8zm0 0" fill="#88d3d1"/><path d="m216 160v32c0 4.417969 3.582031 8 8 8h32c4.417969 0 8-3.582031 8-8l-40-40c-4.417969 0-8 3.582031-8 8zm0 0" fill="#88d3d1"/><path d="m96 344h128v88h-128zm0 0" fill="#c5dddc"/><path d="m96 432v-88h128zm0 0" fill="#88d3d1"/><path d="m156 344h8v88h-8zm0 0" fill="#33b1a2"/><path d="m160 288h-32c-4.417969 0-8-3.582031-8-8s3.582031-8 8-8h32c4.417969 0 8 3.582031 8 8s-3.582031 8-8 8zm0 0" fill="#ee1442"/><path d="m200 280c0 4.417969-3.582031 8-8 8s-8-3.582031-8-8 3.582031-8 8-8 8 3.582031 8 8zm0 0" fill="#ee1442"/></svg>