<svg height="480pt" viewBox="0 0 480.00289 480" width="480pt" xmlns="http://www.w3.org/2000/svg"><path d="m216.003906 191.523438c0-3.035157-1.710937-5.800782-4.425781-7.160157l-48-24-7.160156 14.308594 33.699219 16.851563-33.691407 16.839843 7.160157 14.308594 48-24c2.707031-1.351563 4.417968-4.117187 4.417968-7.148437zm0 0"/><path d="m268.425781 198.683594 48 24 7.160157-14.3125-33.695313-16.847656 33.6875-16.839844-7.160156-14.3125-48 24c-2.703125 1.351562-4.414063 4.117187-4.414063 7.152344 0 3.03125 1.710938 5.796874 4.421875 7.160156zm0 0"/><path d="m472.003906 407.523438c0-24.027344-12.152344-46.523438-32-59.800782v-188.199218c0-22.058594-17.945312-40-40-40-3.878906 0-7.734375.589843-11.449218 1.710937-13.917969-60.9375-69.109376-105.710937-132.550782-105.710937h-128c-6.566406 0-12.558594-4.167969-14.921875-10.371094-1.320312-3.46875-4.910156-5.550782-8.542969-5.0859378-14.671874 1.9687498-28.222656 9.8789058-37.199218 21.7109378-9.0625 11.9375-12.886719 26.792968-10.785156 41.832031 2.96875 20.871094 17.929687 37.992187 37.945312 44.726563-4.222656 14.128906-6.496094 28.609374-6.496094 43.1875h-8c-22.054687 0-40 17.941406-40 40 0 22.054687 17.945313 40 40 40h8.855469c5.359375 50.972656 36.007813 94.511718 79.144531 117.8125v35.9375l-114.351562 28.570312c-27.03125 6.796875-48.03125 28.828125-53.496094 56.109375-.472656 2.351563.144531 4.792969 1.65625 6.640625 1.527344 1.847656 3.792969 2.929688 6.191406 2.929688h464c2.390625 0 4.664063-1.074219 6.175782-2.921876 1.519531-1.839843 2.136718-4.28125 1.671874-6.625-2.28125-11.550781-7.511718-22.230468-15.03125-31.460937 4.625-9.617187 7.183594-20.179687 7.183594-30.992187zm-48-248v192.636718c0 2.859375 1.519532 5.503906 4 6.929688 17.273438 9.96875 28 28.535156 28 48.433594 0 9.902343-2.609375 19.597656-7.550781 28.054687-10.027344 17.238281-28.59375 27.945313-48.449219 27.945313-2.144531 0-4.289062-.144532-6.398437-.355469-24.585938-2.726563-45.152344-22.335938-48.898438-46.613281-.832031-5.425782-.917969-10.800782-.289062-15.953126 2.175781-17.3125 12.496093-32.832031 27.578125-41.503906 2.480468-1.425781 4.007812-4.070312 4.007812-6.9375v-192.636718c0-.433594-.03125-.890626.03125-1.328126.046875-.25-.023437-.488281 0-.738281l.097656.007813c.480469-5.65625 2.917969-10.960938 6.886719-14.925782 1.230469-1.234374 2.535157-2.28125 3.902344-3.144531 4-2.535156 8.53125-3.871093 13.082031-3.871093 13.230469 0 24 10.765624 24 24zm-93.726562 230.285156-18.273438-4.542969v-35.855469c18.527344-9.960937 34.886719-23.777344 48-40.71875v39.023438c-14.726562 9.839844-25.320312 24.96875-29.726562 42.09375zm-257.875-328.4375c-1.503906-10.777344 1.21875-21.410156 7.6875-29.921875 5.394531-7.113281 12.785156-12.113281 21.195312-14.429688 5.847656 8.878907 15.886719 14.503907 26.71875 14.503907h128c57.527344 0 107.320313 41.742187 117.847656 97.78125-.71875.625-1.457031 1.234374-2.144531 1.921874-3.992187 3.992188-6.925781 8.832032-8.910156 14.070313-11.464844-7.175781-18.792969-19.800781-18.792969-33.773437v-8c0-4.425782-3.578125-8-8-8h-222.320312c-2.144532 0-4.328125-.175782-6.382813-.496094-.257812-.050782-.472656-.082032-.617187-.089844-.207032-.03125-.441406-.070312-.625-.085938-17.742188-3.210937-31.269532-16.671874-33.65625-33.480468zm7.601562 154.152344c-13.230468 0-24-10.769532-24-24 0-13.234376 10.769532-24 24-24h8v48zm24 0v-64c0-13.53125 2.070313-27 6.160156-40.113282 1.183594.070313 2.351563.113282 3.519532.113282h22.320312v32h16v-32h16v32h16v-32h16v32h16v-32h16v32h16v-32h16v32h16v-32h16v32h16v-32h16c0 2.863281.238282 5.671874.664063 8.4375.144531.929687.40625 1.808593.589843 2.722656.371094 1.8125.746094 3.628906 1.289063 5.390625.320313 1.039062.753906 2.023437 1.136719 3.039062.585937 1.558594 1.175781 3.121094 1.894531 4.617188.496094 1.023437 1.066406 2 1.625 2.992187.777344 1.398438 1.578125 2.773438 2.464844 4.09375.648437.96875 1.359375 1.882813 2.0625 2.800782.960937 1.25 1.945312 2.457031 3.007812 3.617187.792969.871094 1.617188 1.695313 2.464844 2.511719 1.128906 1.085937 2.304687 2.128906 3.527344 3.121094.921875.742187 1.839843 1.460937 2.808593 2.160156 1.296876.917968 2.648438 1.765625 4.03125 2.582031 1.023438.601563 2.035157 1.207031 3.097657 1.746094.457031.230469.863281.527343 1.328125.75v117.367187c-23.710938 44.496094-69.511719 72.050782-119.992188 72.050782-74.992187 0-136-61.007813-136-136zm136 152c19.582032 0 38.496094-3.792969 56-10.714844v29.769531l-56 28-56-28v-29.878906c17.351563 6.910156 36.214844 10.824219 56 10.824219zm-182.464844 61.832031 117.519532-29.363281 61.359375 30.679687c1.128906.570313 2.363281.851563 3.585937.851563s2.457032-.28125 3.574219-.839844l61.363281-30.683594 23.230469 5.777344c-.105469 4.359375.046875 8.761718.726563 13.207031 2.738281 17.746094 12.433593 33.539063 26.097656 44.539063h-336.320313c6.617188-16.738282 21.070313-29.679688 38.863281-34.167969zm387.488282 34.167969c3.921875-3.144532 7.519531-6.707032 10.726562-10.640626 2.242188 3.351563 4.144532 6.902344 5.609375 10.640626zm0 0"/><path d="m368.003906 407.523438c0 17.644531 14.351563 32 32 32 17.648438 0 32-14.355469 32-32 0-14.875-10.230468-27.289063-24-30.867188v-185.132812h-16v185.132812c-13.769531 3.578125-24 15.992188-24 30.867188zm48 0c0 8.824218-7.175781 16-16 16-8.824218 0-16-7.175782-16-16 0-8.824219 7.175782-16 16-16 8.824219 0 16 7.175781 16 16zm0 0"/><path d="m288.003906 287.523438c0-26.472657-21.527344-48-48-48s-48 21.527343-48 48c0 4.421874 3.574219 8 8 8h80c4.421875 0 8-3.578126 8-8zm-78.984375-8c3.550781-13.792969 16.105469-24 30.984375-24s27.433594 10.207031 30.984375 24zm0 0"/><path d="m104.003906 431.523438h16v16h-16zm0 0"/><path d="m136.003906 431.523438h16v16h-16zm0 0"/><path d="m168.003906 431.523438h16v16h-16zm0 0"/></svg>