<svg height="510pt" viewBox="0 -8 510.77435 510" width="510pt" xmlns="http://www.w3.org/2000/svg"><path d="m187.054688 290.871094-143.367188 142.8125 24.964844 24.960937 133.761718-133.179687 9.625-9.613282zm0 0" fill="#f0785a"/><path d="m332.535156 299.695312 134.539063 133.988282-24.960938 24.960937-133.765625-133.179687-26.484375-16.71875 35.3125-35.3125zm0 0" fill="#fdd7ad"/><path d="m203.210938 324.679688 53.140624-10.59375 66.382813-13.328126c3.425781-.683593 6.585937-2.339843 9.09375-4.769531l1.589844-1.589843 123.234375-123.320313-24.984375-24.894531-99.839844 99.886718-74.945313-74.945312 24.453126-24.453125 75.386718-75.390625-24.894531-24.980469-1.6875 1.675781-73.789063 73.710938-24.980468 24.984375-24.453125 24.453125c-2.429688 2.507812-4.085938 5.664062-4.765625 9.089844l-11.125 55.703125-11.738282 58.527343-1.0625 5.296876zm101.074218-56.234376-11.5625 2.296876-36.371094 7.328124-39.371093 7.855469 3.003906-15.183593 3.53125-17.390626 10.945313-54.730468zm0 0" fill="#cc6f56"/><path d="m461.910156 186.582031-137.328125-137.324219c-3.445312-3.449218-3.445312-9.039062 0-12.484374l31.210938-31.210938c6.894531-6.894531 18.074219-6.894531 24.96875 0l124.839843 124.839844c6.894532 6.894531 6.894532 18.074218 0 24.96875l-31.207031 31.210937c-3.449219 3.445313-9.039062 3.445313-12.484375 0zm0 0" fill="#7f6e5d"/><path d="m332.535156 299.695312-1.058594-5.296874-11.742187-58.523438-11.121094-55.703125c-.683593-3.425781-2.339843-6.582031-4.769531-9.09375l-49.433594-49.433594-73.789062-73.710937-1.6875-1.675782-24.894532 25.023438 75.390626 75.390625 24.449218 24.453125-74.945312 74.945312-99.839844-99.886718-24.980469 24.894531 123.230469 123.320313 1.589844 1.589843c2.511718 2.429688 5.667968 4.085938 9.09375 4.769531l66.382812 13.328126 53.140625 10.59375zm-56.230468-101.074218 10.945312 54.730468 3.53125 17.390626 3 15.183593-39.371094-7.855469-36.371094-7.328124-11.5625-2.296876zm0 0" fill="#f09372"/><path d="m5.171875 130.398438 124.839844-124.839844c6.894531-6.894532 18.074219-6.894532 24.96875 0l31.210937 31.210937c3.445313 3.445313 3.445313 9.035157 0 12.484375l-137.324218 137.324219c-3.449219 3.445313-9.039063 3.445313-12.484376 0l-31.210937-31.210937c-6.894531-6.894532-6.894531-18.074219 0-24.96875zm0 0" fill="#af8066"/><g fill="#5e5f62"><path d="m433.28125 449.816406 24.96875-24.964844c3.449219-3.449218 9.035156-3.449218 12.484375 0l31.210937 31.207032-37.453124 37.453125-31.210938-31.210938c-3.445312-3.445312-3.445312-9.035156 0-12.484375zm0 0"/><path d="m46.273438 493.507812-37.453126-37.453124 31.210938-31.207032c3.445312-3.449218 9.035156-3.449218 12.484375 0l24.96875 24.964844c3.445313 3.449219 3.445313 9.039062 0 12.484375zm0 0"/></g></svg>